<svg xmlns="http://www.w3.org/2000/svg" width="100%" height="auto" style="max-width: 285px;" fill="none" viewBox="0 0 2712 516.22" preserveAspectRatio="xMidYMid meet"><g clip-path="url(#a)"><path fill="#ffff0a" d="M141 146.328c0 85.993.128 135.075.321 138.143 1.057 15.536 4.263 31.435 9.008 44.497 11.188 30.71 30.455 55.812 56.101 72.997 15.42 10.358 32.218 17.516 49.882 21.177 9.521 2.012 18.69 2.903 29.589 2.903 20.004 0 37.187-3.2 54.499-10.193 32.506-13.095 57.992-36.944 73.989-69.302 8.944-18.043 13.881-35.955 15.965-57.791.769-7.884.769-25.036 0-32.656-1.603-16.328-4.616-29.588-9.714-42.881-13.977-36.515-39.078-64.717-72.066-81.012-18.369-9.071-37.315-13.689-58.377-14.217-8.655-.231-14.298.165-21.607 1.418-21.863 3.761-39.591 12.634-51.709 25.861l-3.11 3.397V13H141zm153.781 47.268c8.015 1.088 14.875 3.232 21.864 6.795 7.726 3.925 13.817 8.51 19.908 15.008 11.06 11.809 18.112 26.85 20.741 44.333.802 5.376.802 19.692 0 25.069-.769 5.178-1.987 10.324-3.462 14.777-8.976 26.85-30.199 46.081-56.229 50.963-3.302.627-4.969.726-11.702.726-6.796-.033-8.367-.132-11.701-.759-14.105-2.771-26.351-9.236-36.802-19.495-9.585-9.4-17.119-22.859-20.581-36.811-4.072-16.361-3.398-33.943 1.923-48.885 1.667-4.684 6.187-13.92 8.656-17.746 10.771-16.559 27.057-28.698 44.079-32.821 6.957-1.649 16.061-2.111 23.306-1.154M591.252 118.092c-14.201 1.187-25.838 3.529-37.379 7.587-19.331 6.729-35.809 16.789-51.036 31.072-17.055 16.031-30.872 38.296-38.694 62.408-5.835 17.978-8.335 36.054-7.918 57.395.545 28.071 5.706 50.732 16.574 72.7 18.561 37.505 50.747 63.003 91.845 72.733 19.524 4.618 41.675 5.41 57.736 2.013 25.743-5.443 50.171-18.571 74.471-40.012 2.949-2.573 3.751-3.133 4.039-2.804.224.231 6.54 9.236 14.073 19.99l13.689 19.527h17.6V129.439h-17.504l-14.073 17.317-14.041 17.285-1.635-1.485c-10.034-9.104-16.093-14.019-24.557-19.758-19.266-13.161-39.11-21.177-59.627-24.112-3.559-.495-19.684-.891-23.563-.594m20.678 75.834c18.85 3.496 36.449 15.998 48.118 34.14 3.238 4.98 7.342 13.755 9.233 19.626 2.725 8.444 3.879 15.8 3.879 24.574 0 12.436-2.565 23.486-8.175 35.13-4.456 9.302-9.457 16.394-16.413 23.255-11.541 11.446-24.877 18.34-39.367 20.319-4.649.659-15.196.461-20.197-.363-15.516-2.507-28.371-9.005-38.469-19.429-11.926-12.336-19.139-29.852-20.645-50.204-2.052-27.543 5.353-51.787 20.645-67.62 11.124-11.479 25.71-18.241 43.278-20.055 3.27-.33 15.195.066 18.113.627M1582.8 118.092c-14.2 1.187-25.84 3.529-37.38 7.587-19.33 6.729-35.81 16.789-51.03 31.072-17.06 16.031-30.88 38.296-38.7 62.408-5.83 17.978-8.33 36.054-7.92 57.395.55 28.071 5.71 50.732 16.58 72.7 18.56 37.505 50.74 63.003 91.84 72.733 19.53 4.618 41.68 5.41 57.74 2.013 25.74-5.443 50.17-18.571 74.47-40.012 2.95-2.573 3.75-3.133 4.04-2.804.22.231 6.54 9.236 14.07 19.99l13.69 19.527h17.6V129.439h-17.5l-14.08 17.317-14.04 17.285-1.63-1.485c-10.04-9.104-16.1-14.019-24.56-19.758-19.27-13.161-39.11-21.177-59.63-24.112-3.55-.495-19.68-.891-23.56-.594m20.68 75.834c18.85 3.496 36.45 15.998 48.12 34.14 3.24 4.98 7.34 13.755 9.23 19.626 2.72 8.444 3.88 15.8 3.88 24.574 0 12.436-2.57 23.486-8.18 35.13-4.45 9.302-9.45 16.394-16.41 23.255-11.54 11.446-24.88 18.34-39.37 20.319-4.64.659-15.19.461-20.19-.363-15.52-2.507-28.37-9.005-38.47-19.429-11.93-12.336-19.14-29.852-20.65-50.204-2.05-27.543 5.36-51.787 20.65-67.62 11.12-11.479 25.71-18.241 43.28-20.055 3.27-.33 15.19.066 18.11.627"/><path fill="#fff" d="M2406.43 135.046c-15.64 9.401-28.66 17.252-28.92 17.483-.41.363-.48 3.397-.48 22.463v22.067h-26.28v47.499h26.22l.16 59.935c.19 67.884.29 71.645 2.47 82.959 1.51 7.652 3.75 13.887 6.92 18.999 2.92 4.651 9.49 10.226 15.71 13.26 9.04 4.454 17.63 6.466 29.14 6.828 14.56.462 29.59-1.913 42.64-6.729 3.88-1.418 4.97-1.979 4.97-2.506 0-.99-4.81-45.191-4.94-45.323-.06-.066-1.41.33-2.95.891-3.52 1.286-9.65 3.035-13.27 3.826-4.04.891-10.13.792-12.63-.132-5.68-2.144-8.75-6.168-9.52-12.435-.29-2.111-.42-19.857-.52-61.254l-.12-58.319 19.65-.066 19.65-.099v-47.169l-19.62-.099-19.65-.066-.07-39.549-.09-39.55z"/><path fill="#ffff0a" d="M940.683 118.587c-23.627 1.286-49.754 11.446-72.707 28.301-5.354 3.926-12.279 9.632-16.382 13.425-1.731 1.617-3.398 3.101-3.687 3.332-.448.33-2.436-1.946-14.874-17.087l-14.362-17.449h-17.6v400.114h73.092l.064-63.958.096-63.926 5.129 2.935c20.613 11.875 39.207 19.264 54.691 21.771 4.007.626 5.867.725 13.913.725 6.636 0 10.836-.165 14.683-.593 30.294-3.266 56.361-14.217 78.441-33.019 4.62-3.925 14.21-13.986 18.02-18.901 12.76-16.492 22.47-36.811 27.47-57.592 3.4-14.052 4.94-27.609 4.94-44.069 0-13.92-.9-23.782-3.33-36.053-6.41-32.59-23.18-62.508-46.49-82.893-21.8-19.098-48.148-30.775-77.481-34.272-3.558-.428-17.439-1.253-18.497-1.088-.16 0-2.468.165-5.129.297m17.792 75.339c12.246 2.012 23.338 6.828 32.731 14.216 3.975 3.134 10.384 9.962 13.174 13.986 4.17 6.037 7.92 13.557 10.13 20.286 5.77 17.384 6 39.55.64 56.9-6.09 19.66-18.494 35.13-35.293 44.003-9.841 5.179-19.459 7.686-30.871 8.016-9.714.296-16.799-.726-25.39-3.695-12.278-4.222-23.082-11.842-31.417-22.1-7.149-8.774-13.015-21.276-15.58-33.151-1.442-6.762-1.923-11.643-1.923-20.451.032-15.47 2.404-26.685 8.303-39.087 5.738-12.007 14.522-22.068 25.261-28.929 8.143-5.211 18.754-9.005 29.013-10.324 4.616-.627 16.638-.429 21.222.33M1271.52 118.587c-23.63 1.286-49.75 11.446-72.71 28.301-5.35 3.926-12.28 9.632-16.38 13.425-1.73 1.617-3.4 3.101-3.69 3.332-.44.33-2.43-1.946-14.87-17.087l-14.36-17.449h-17.6v400.114H1205l.06-63.958.1-63.926 5.13 2.935c20.61 11.875 39.21 19.264 54.69 21.771 4.01.626 5.87.725 13.91.725 6.64 0 10.84-.165 14.69-.593 30.29-3.266 56.35-14.217 78.44-33.019 4.62-3.925 14.2-13.986 18.02-18.901 12.76-16.492 22.47-36.811 27.47-57.592 3.4-14.052 4.94-27.609 4.94-44.069 0-13.92-.9-23.782-3.34-36.053-6.41-32.59-23.17-62.508-46.48-82.893-21.8-19.098-48.15-30.775-77.48-34.272-3.56-.428-17.44-1.253-18.5-1.088-.16 0-2.47.165-5.13.297m17.79 75.339c12.25 2.012 23.34 6.828 32.73 14.216 3.98 3.134 10.39 9.962 13.18 13.986 4.17 6.037 7.92 13.557 10.13 20.286 5.77 17.384 5.99 39.55.64 56.9-6.09 19.66-18.5 35.13-35.3 44.003-9.84 5.179-19.45 7.686-30.87 8.016-9.71.296-16.8-.726-25.39-3.695-12.28-4.222-23.08-11.842-31.41-22.1-7.15-8.774-13.02-21.276-15.58-33.151-1.45-6.762-1.93-11.643-1.93-20.451.03-15.47 2.41-26.685 8.31-39.087 5.73-12.007 14.52-22.068 25.26-28.929 8.14-5.211 18.75-9.005 29.01-10.324 4.62-.627 16.64-.429 21.22.33M1893.92 124.029c-.61.066-2.69.297-4.65.495-7.31.759-14.87 2.474-22.28 5.08-12.21 4.321-23.43 10.588-33.79 18.868l-3.49 2.803-.7-.791c-.39-.396-4.78-5.41-9.75-11.083l-9.04-10.292h-17.6v291.592h72.45l.06-95.592.1-95.559.87-3.2c3.2-11.94 11.34-21.506 21.86-25.695 7.4-2.936 16.93-3.134 24.49-.495 12.09 4.255 20.68 14.052 23.88 27.213l.68 2.837.09 95.229.1 95.262h72.45v-94.47c0-103.245-.1-96.978 1.83-102.75 4.23-12.766 14.58-22.134 27.15-24.608 3.37-.659 10.13-.659 13.53 0 8.82 1.716 17.12 7.125 22.57 14.646 1.63 2.276 4.2 7.455 5.1 10.258 1.89 6.004 1.76-1.88 1.85 101.992l.1 94.932h72.16l-.12-96.911c-.13-104.169-.04-98.165-1.67-108.094-3.91-23.453-16.54-47.07-33.76-62.936-14.68-13.524-32.25-22.76-50.71-26.62-8.53-1.748-12.15-2.111-22.12-2.111-10.04-.033-14.33.396-22.77 2.111-18.75 3.86-36.51 14.547-47.44 28.533-1.15 1.484-2.21 2.705-2.34 2.738-.16.066-1.6-1.518-3.27-3.464-14.01-16.691-31.67-25.926-55.94-29.291-3.46-.495-17.38-.924-19.88-.627"/><path fill="#fff" d="M2486.58 197.29c-.07.165 4.23 11.38 9.58 25.003 14.23 36.317 37.67 96.351 59.05 151.14l18.82 48.258h52l.67-1.749c.35-.923 8.78-22.859 18.75-48.719 16.67-43.31 27.48-71.282 56.07-145.466 5.84-15.141 10.68-27.807 10.77-28.137.13-.528-1.37-.561-29.46-.495l-29.62.099-8.91 24.739c-4.9 13.59-14.36 39.814-21.03 58.22-11.38 31.369-14.59 40.803-20.77 61.089-1.38 4.486-2.6 8.18-2.73 8.18s-.74-1.682-1.34-3.727c-8.05-26.487-11.58-36.944-24.82-73.789-7.56-21.143-16.64-46.443-20.1-56.24-3.49-9.797-6.47-18.01-6.67-18.241-.22-.297-6.66-.396-30.23-.396-16.44 0-29.97.099-30.03.231M2259.16 351.893c-14.4 2.804-24.56 13.557-27.19 28.731-.67 3.892-.67 11.281 0 15.173 3.08 17.779 16.35 29.192 33.98 29.192 21.19 0 35.65-16.097 34.66-38.593-.45-10.522-3.75-18.868-9.94-25.267-4.01-4.123-9.01-7.026-14.87-8.609-2.67-.726-3.95-.858-8.72-.957-3.79-.066-6.35.033-7.92.33"/><ellipse cx="51.5" cy="62" fill="#ffff0a" rx="50.5" ry="49"/><path fill="#ffff0a" d="M16 134h72v284H16z"/></g><defs><clipPath id="a"><path fill="#fff" d="M0 0h2712v542H0z"/></clipPath></defs></svg>
